<?xml version="1.0" encoding="UTF-8" standalone="no"?>
<svg
   version="1.0"
   width="768"
   height="256"
   viewBox="0 0 576 192"
   preserveAspectRatio="xMidYMid"
   id="svg178"
   sodipodi:docname="logo.svg"
   inkscape:version="1.2 (dc2aeda, 2022-05-15)"
   inkscape:export-filename="logo.svg"
   inkscape:export-xdpi="171.50369"
   inkscape:export-ydpi="171.50369"
   xmlns:inkscape="http://www.inkscape.org/namespaces/inkscape"
   xmlns:sodipodi="http://sodipodi.sourceforge.net/DTD/sodipodi-0.dtd"
   xmlns="http://www.w3.org/2000/svg"
   xmlns:svg="http://www.w3.org/2000/svg">
  <defs
     id="defs182">
    <linearGradient
       id="linearGradient1104"
       inkscape:swatch="solid">
      <stop
         style="stop-color:#f6b0bb;stop-opacity:1;"
         offset="0"
         id="stop1102" />
    </linearGradient>
  </defs>
  <sodipodi:namedview
     id="namedview180"
     pagecolor="#ffffff"
     bordercolor="#000000"
     borderopacity="0.25"
     inkscape:showpageshadow="2"
     inkscape:pageopacity="0.0"
     inkscape:pagecheckerboard="0"
     inkscape:deskcolor="#d1d1d1"
     inkscape:document-units="pt"
     showgrid="false"
     inkscape:zoom="0.74780719"
     inkscape:cx="417.21985"
     inkscape:cy="58.838696"
     inkscape:window-width="1440"
     inkscape:window-height="848"
     inkscape:window-x="0"
     inkscape:window-y="52"
     inkscape:window-maximized="0"
     inkscape:current-layer="g391" />
  <g
     id="g642"
     transform="matrix(1.1822719,0,0,1.1666954,-120.52253,-30.932174)"
     style="fill:#ffffff"
     inkscape:export-filename="g642.svg"
     inkscape:export-xdpi="171.50369"
     inkscape:export-ydpi="171.50369">
    <g
       id="g391">
      <g
         id="g463"
         transform="translate(7.6347842)"
         inkscape:export-filename="./logo.svg"
         inkscape:export-xdpi="171.50369"
         inkscape:export-ydpi="171.50369">
        <g
           id="g626"
           style="fill:#ffffff;fill-opacity:1"
           transform="matrix(0.79661458,0,0,0.68090696,24.376366,10.203633)">
          <g
             id="g611"
             style="display:inline;fill:#ffffff;fill-opacity:1">
            <path
               d="m 171.1,31.1 c -18.3,3.6 -37.1,15.2 -48.3,29.8 -2.7,3.5 -4.8,6.5 -4.6,6.6 0.2,0.2 3.1,-0.2 6.4,-0.9 5.3,-0.9 6.9,-1.8 11.5,-6.1 C 151,46.5 166.8,40 186,40 c 19.9,0 36.6,6.9 50.5,20.7 4.8,4.8 6.4,5.8 11.7,7 3.3,0.8 6.3,1.2 6.5,0.9 0.9,-0.8 -5.9,-9.9 -11.4,-15.3 C 227.7,37.9 207.8,29.9 186,30.1 c -5.8,0.1 -12.5,0.5 -14.9,1 z"
               id="path134"
               style="fill:#ffffff;fill-opacity:1;stroke:none;stroke-width:0.1" />
            <path
               d="m 174,46.5 c -11.3,2.1 -24.6,9.1 -32.9,17.3 -10.9,10.7 -18.7,26 -13.9,27 0.9,0.2 6.2,-1.5 11.7,-3.7 32.1,-12.9 62.3,-13 94.3,-0.1 15.5,6.2 16.8,5.5 11.3,-5.8 C 239.2,70.6 227.6,59 216.4,53.2 203.1,46.4 187.7,43.9 174,46.5 Z"
               id="path136"
               style="fill:#ffffff;fill-opacity:1;stroke:none;stroke-width:0.1" />
            <path
               d="m 119.6,73.5 c -2.7,0.8 -5.5,2 -6.2,2.7 -2.2,2.3 -6.3,16 -7.5,25.6 -1.7,13.7 1.4,33.7 6.7,41.9 1.3,2 11.8,6.3 12.8,5.2 0.3,-0.2 -1.1,-3.5 -2.9,-7.4 -9.4,-19.2 -9.3,-43.3 0,-62 1.9,-3.8 3.5,-7 3.5,-7.2 0,-0.4 -1,-0.3 -6.4,1.2 z"
               id="path138"
               style="fill:#ffffff;fill-opacity:1;stroke:none;stroke-width:0.1" />
            <path
               d="m 248,74.3 c 0,0.2 1.1,2.9 2.5,5.9 8.8,19.2 8.6,42.2 -0.5,61.7 -1.7,3.5 -2.8,6.6 -2.6,6.9 0.3,0.2 3.1,-0.4 6.3,-1.4 5.7,-1.9 5.9,-2 8.1,-7.8 3.5,-8.8 5.2,-18 5.2,-28.8 0,-15.6 -4.4,-32.1 -9.1,-34.5 -2.7,-1.3 -9.9,-2.8 -9.9,-2 z"
               id="path140"
               style="fill:#ffffff;fill-opacity:1;stroke:none;stroke-width:0.1" />
            <path
               d="m 172,84 c -10.1,1.3 -10.9,2.3 -18.1,23 -5.8,16.8 -6.1,16.1 13,28.5 20.4,13.3 17.9,13.5 46.3,-4.8 10.5,-6.8 10.8,-9 4.1,-27.3 C 211.2,86.8 209.7,85.1 200,84 c -8.7,-1.1 -20.1,-1 -28,0 z m 21.8,15 c 11.3,6.9 6,25.3 -7.2,25.3 -11.9,0 -18.4,-13.4 -10.8,-22.5 1.4,-1.6 3.5,-3.4 4.6,-3.8 3.8,-1.6 10,-1.1 13.4,1 z"
               id="path142"
               style="fill:#ffffff;fill-opacity:1;stroke:none;stroke-width:0.1" />
            <path
               d="m 184.3,102.8 c -2.9,0.4 -6.3,4.8 -6.3,7.9 0,3.2 5.1,8.3 8.3,8.3 4.1,0 7.7,-3.6 7.7,-7.6 0,-2 -0.4,-4.4 -1,-5.4 -1.1,-2.1 -5.5,-3.7 -8.7,-3.2 z"
               id="path144"
               style="fill:#ffffff;fill-opacity:1;stroke:none;stroke-width:0.1" />
            <path
               d="m 141.5,92.1 c -6,2.5 -11.8,4.2 -14.5,4.3 -4.1,0.1 -4.5,0.3 -5.1,3.1 -0.4,1.7 -0.7,5.4 -0.8,8.2 -0.1,4.8 0.1,5.3 2,5.3 1.2,0 6.2,1.8 11.1,4 5,2.2 9.2,4 9.3,4 0.1,0 0.8,-2.1 1.4,-4.6 0.6,-2.5 3,-9.3 5.1,-15.1 4.3,-11.4 4.7,-13.3 2.8,-13.3 -0.7,0 -5.8,1.9 -11.3,4.1 z"
               id="path146"
               style="fill:#ffffff;fill-opacity:1;stroke:none;stroke-width:0.1" />
            <path
               d="m 218,88.4 c 0,0.2 2.3,6.6 5,14.1 2.8,7.5 5,14.8 5,16.1 0,1.3 0.4,2.4 0.9,2.4 0.4,0 4.7,-1.8 9.4,-4 4.7,-2.2 9.7,-4 11.2,-4 h 2.7 l -0.6,-6.8 c -1.1,-10.1 -1,-10 -6.4,-10 -3.3,0 -7.6,-1.2 -14.3,-4.1 C 222.3,88.4 218,87.2 218,88.4 Z"
               id="path148"
               style="fill:#ffffff;fill-opacity:1;stroke:none;stroke-width:0.1" />
            <path
               d="m 122.3,120.6 c -0.3,0.9 0.2,4.3 1.1,7.7 4.7,16.9 18.2,33 33.7,40.6 9.4,4.5 11,4.8 12.9,2.6 1.9,-2.3 -0.4,-14.4 -4.2,-22.4 C 161,139 154.9,133.7 139,125.7 131.6,122 124.9,119 124.2,119 c -0.7,0 -1.5,0.7 -1.9,1.6 z"
               id="path150"
               style="fill:#ffffff;fill-opacity:1;stroke:none;stroke-width:0.1" />
            <path
               d="m 237.2,124 c -19.2,9.3 -25,14.1 -30.1,24.5 -3.4,6.8 -5,13.1 -5.1,19.2 0,5.3 2,6.1 9,3.3 14.1,-5.6 26.5,-17.1 33.6,-31.4 4.9,-10 7.1,-20.6 4.2,-20.6 -0.8,0 -6,2.2 -11.6,5 z"
               id="path152"
               style="fill:#ffffff;fill-opacity:1;stroke:none;stroke-width:0.1" />
            <path
               d="m 171,145.6 c 0,0.2 1.2,3.8 2.6,8.1 1.7,5.1 2.6,10 2.6,14.4 0.1,6.6 0.1,6.7 3.1,7.3 3.7,0.8 10.6,0.8 14.3,0 2.9,-0.5 2.9,-0.6 3,-8.2 0.1,-6.9 1.4,-12.4 4.9,-20.5 0.6,-1.4 -0.4,-1.1 -5,1.3 -7.4,3.9 -12.4,3.9 -19.9,0.2 -3.1,-1.6 -5.6,-2.7 -5.6,-2.6 z"
               id="path154"
               style="fill:#ffffff;fill-opacity:1;stroke:none;stroke-width:0.1" />
            <path
               d="m 118.9,155.7 c 7.5,14.1 59.8,103.4 61.6,105.2 2.8,2.8 7.2,3.2 10.7,0.9 1.9,-1.3 60.3,-100.6 62.4,-106.3 0.6,-1.3 -0.1,-1.5 -5.2,-0.9 -5.3,0.6 -6.4,1.2 -10.9,5.4 -13.7,12.8 -26.1,18.9 -43.4,21.1 -7.5,1 -10.6,0.9 -18.5,-0.5 -16,-2.7 -26.8,-8 -38.6,-19.2 -6.2,-5.8 -6.8,-6.2 -12.8,-6.8 -5.9,-0.7 -6.3,-0.6 -5.3,1.1 z"
               id="path156"
               style="fill:#ffffff;fill-opacity:1;stroke:none;stroke-width:0.1" />
          </g>
        </g>
        <text
           xml:space="preserve"
           style="font-style:normal;font-variant:normal;font-weight:bold;font-stretch:normal;font-size:76.6311px;font-family:'Londrina Shadow';-inkscape-font-specification:'Londrina Shadow Bold';fill:#ffffff;fill-opacity:1;stroke-width:0.912682;stroke-dasharray:none"
           x="240.70291"
           y="155.55199"
           id="text4429"
           transform="scale(1.058379,0.94484112)"><tspan
             sodipodi:role="line"
             id="tspan4427"
             x="240.70291"
             y="155.55199"
             style="font-style:normal;font-variant:normal;font-weight:normal;font-stretch:normal;font-size:76.6311px;font-family:Roboto;-inkscape-font-specification:Roboto;fill:#ffffff;fill-opacity:1;stroke-width:0.912682">WeTrack</tspan></text>
      </g>
    </g>
  </g>
</svg>
